<svg xmlns="http://www.w3.org/2000/svg" viewBox="0 0 750 500"><g id="freepik--Device--inject-5"><path d="M622.34,96.48,501.63,96.4a26.3,26.3,0,0,0-26.31,26.3l-.06,302.63a26.3,26.3,0,0,0,26.28,26.3l120.71.07a26.29,26.29,0,0,0,26.31-26.29l.06-302.63A26.28,26.28,0,0,0,622.34,96.48Zm-60.49,54.06a2.15,2.15,0,1,1,2.15-2.15A2.14,2.14,0,0,1,561.85,150.54Zm.09-8.66a8.74,8.74,0,1,1,8.74-8.73A8.74,8.74,0,0,1,561.94,141.88Z" style="fill:#263238"></path><path d="M568.32,168.35c0,2.88,0,5.21-.09,5.21s-.09-2.33-.09-5.21,0-5.21.09-5.21S568.32,165.48,568.32,168.35Z"></path><path d="M622.22,108l-23.41,0-68.35,0H501.74a18.4,18.4,0,0,0-18.42,18.41l-.06,295.39a18.42,18.42,0,0,0,18.4,18.42l120.48.07a18.41,18.41,0,0,0,18.42-18.41l.06-295.39A18.41,18.41,0,0,0,622.22,108Zm-60.37,42.56a2.15,2.15,0,1,1,2.15-2.15A2.14,2.14,0,0,1,561.85,150.54Zm.09-8.66a8.74,8.74,0,1,1,8.74-8.73A8.74,8.74,0,0,1,561.94,141.88Z" style="fill:#455a64"></path><path d="M635.52,402.7H488.26V192.57H635.52Zm-146.26-1H634.52V193.57H489.26Z" style="fill:#263238"></path><path d="M623.66,430.27s.18,0,.52,0l.64,0,.87-.15a11.68,11.68,0,0,0,2.38-.71,12.65,12.65,0,0,0,2.89-1.79,11.31,11.31,0,0,0,4-8.27c0-3.74-.06-8.05-.09-12.86l.15.15-134.82.11H488.76l.26-.26c0,2.69,0,5.36.05,8q0,2,0,4a12.48,12.48,0,0,0,.51,3.81,11.42,11.42,0,0,0,4.47,6A11.81,11.81,0,0,0,501.2,430l29,0,48.83.06,32.69.08,8.85.05,2.3,0,.78,0-.78,0-2.3,0-8.85,0-32.69.08-48.83.06-29,0a12.31,12.31,0,0,1-7.4-2,11.89,11.89,0,0,1-4.68-6.23,12.91,12.91,0,0,1-.54-3.95l0-4q0-4-.05-8v-.26h11.7l134.82.11h.15v.15c0,4.81.06,9.11,0,12.86a11.33,11.33,0,0,1-4.13,8.39,11.31,11.31,0,0,1-5.36,2.47l-.88.12-.64,0Z" style="fill:#263238"></path><path d="M622.58,113.8H501.2a12.44,12.44,0,0,0-12.44,12.44v60.41L635,186.16V126.24A12.44,12.44,0,0,0,622.58,113.8Zm-47.49,27.34c-1.13,4.17-3.42,9.08-7,15.29-.85,1.51-2.65,4.72-4.8,4.68s-3.94-2.62-5.29-4.36c-3.31-4.24-6.36-8.78-8.09-13.88a26.17,26.17,0,0,1,.48-16.7c1.52-4,5.7-8.24,12.77-8.24C576,117.93,576.5,136,575.09,141.14Z" style="fill:none"></path><path d="M575.09,141.14s.08-.38.19-1.1a25.6,25.6,0,0,0,.24-3.18,33.12,33.12,0,0,0-.31-5,24.89,24.89,0,0,0-1.74-6.41,12.3,12.3,0,0,0-5.08-6c-2.51-1.43-5.8-1.54-8.93-.79a13,13,0,0,0-4.47,2.07,12.47,12.47,0,0,0-3.45,3.8,17.55,17.55,0,0,0-1.82,5,27.3,27.3,0,0,0-.63,5.52,24.7,24.7,0,0,0,.51,5.53,25.47,25.47,0,0,0,1.75,5.11,49.67,49.67,0,0,0,5.27,8.79c1,1.32,2,2.6,2.91,3.81a6.48,6.48,0,0,0,3.43,2.58,2.49,2.49,0,0,0,1.88-.48,7.08,7.08,0,0,0,1.43-1.41,24.12,24.12,0,0,0,2.07-3.27,91.58,91.58,0,0,0,5.27-10.51c.53-1.28.89-2.3,1.12-3l.26-.79a1.36,1.36,0,0,1,.1-.27,1.17,1.17,0,0,1-.05.28c0,.18-.11.46-.21.81-.2.7-.53,1.74-1,3a84.65,84.65,0,0,1-5.14,10.61,24.25,24.25,0,0,1-2.07,3.34,7.21,7.21,0,0,1-1.52,1.5,2.88,2.88,0,0,1-2.18.56,6.84,6.84,0,0,1-3.71-2.71c-1-1.23-2-2.49-2.94-3.82a48.85,48.85,0,0,1-5.36-8.86,25.81,25.81,0,0,1-1.78-5.21,24.64,24.64,0,0,1-.53-5.64,27.59,27.59,0,0,1,.64-5.63,22.18,22.18,0,0,1,.76-2.68,12.51,12.51,0,0,1,1.13-2.5,13.12,13.12,0,0,1,3.6-4,13.83,13.83,0,0,1,4.64-2.13,12.87,12.87,0,0,1,9.26.88,12.67,12.67,0,0,1,5.21,6.23,24.86,24.86,0,0,1,1.69,6.52,31.19,31.19,0,0,1,.22,5.08,20.91,20.91,0,0,1-.34,3.2c-.08.36-.14.63-.19.81A1.36,1.36,0,0,1,575.09,141.14Z" style="fill:#263238"></path><path d="M622.58,113.8s.48,0,1.42.06a12.57,12.57,0,0,1,4,1.12,12.79,12.79,0,0,1,2.59,1.63,13.81,13.81,0,0,1,2.47,2.74,12.39,12.39,0,0,1,1.72,3.94,19.23,19.23,0,0,1,.37,4.87c0,13.78,0,33.64.09,58v.2H635L501,186.87l-12.2,0h-.26v-.26c0-14.05,0-27.73,0-40.92q0-9.9,0-19.4a12.69,12.69,0,0,1,11.59-12.71c24.18-.09,45.81,0,64,0l42.86.08,11.61,0,3,0,1,0-1,0-3,0-11.61.05-42.86.08-63.92.11A12.21,12.21,0,0,0,489,126.33v19.4c0,13.19,0,26.87,0,40.92l-.26-.26,12.2,0L635,186l-.2.21c0-24.36.06-44.22.08-58a18.74,18.74,0,0,0-.34-4.82,12.14,12.14,0,0,0-1.67-3.89,13,13,0,0,0-2.42-2.72,12.34,12.34,0,0,0-2.54-1.64,12.91,12.91,0,0,0-3.94-1.17c-.46-.06-.82-.06-1-.08Z" style="fill:#263238"></path><rect x="462.67" y="263.85" width="150.02" height="186.63" rx="5.17" style="fill:#263238"></rect><path d="M612.69,279.33c0,.14-33.65.26-75.15.26s-75.16-.12-75.16-.26,33.65-.26,75.16-.26S612.69,279.18,612.69,279.33Z" style="fill:#455a64"></path><path d="M504.66,279.12a53.45,53.45,0,0,1-.26-7.52,53.54,53.54,0,0,1,.26-7.53,55.42,55.42,0,0,1,.26,7.53A55.33,55.33,0,0,1,504.66,279.12Z" style="fill:#455a64"></path><path d="M561.42,279.33a52.14,52.14,0,0,1-.26-7.3,51.93,51.93,0,0,1,.26-7.29,50.17,50.17,0,0,1,.26,7.29A50.37,50.37,0,0,1,561.42,279.33Z" style="fill:#455a64"></path><rect x="578.48" y="263.85" width="3.88" height="12.22" style="fill:#e0e0e0"></rect><rect x="584.51" y="263.85" width="3.88" height="12.22" style="fill:#e0e0e0"></rect><rect x="590.5" y="263.85" width="3.88" height="12.22" style="fill:#e0e0e0"></rect><polygon points="546.95 330.3 528.25 358.94 540.4 358.94 532.16 384.03 555.68 351.5 543.15 351.5 546.95 330.3" style="fill:#e0e0e0"></polygon><path d="M542,401.13a44,44,0,1,1,44-44A44,44,0,0,1,542,401.13Zm0-86.93a43,43,0,1,0,43,43A43,43,0,0,0,542,314.2Z" style="fill:#e0e0e0"></path><path d="M497.13,119.74h-23.4a5.81,5.81,0,0,0-5.69,5.93v4.25a5.81,5.81,0,0,1-5.68,5.94l-45.62,0a5.81,5.81,0,0,1-5.68-5.94v-4.25a5.82,5.82,0,0,0-5.69-5.94H376.66a18.42,18.42,0,0,0-18.43,18.41v54.07l12.49,12.93v75.75H358.2l0,152.64a18.42,18.42,0,0,0,18.41,18.42l120.47.07a18.4,18.4,0,0,0,18.43-18.41l.06-295.39A18.42,18.42,0,0,0,497.13,119.74Zm-123,10.15a3.4,3.4,0,1,1-3.39,3.4A3.4,3.4,0,0,1,374.1,129.89Zm-2.81,63.9a2.08,2.08,0,1,1,2.08-2.08A2.08,2.08,0,0,1,371.29,193.79Zm9.78,241.26a4.43,4.43,0,1,1-1.36-6.12A4.43,4.43,0,0,1,381.07,435.05Zm70-263.75H427.18V147.42h23.88ZM500,436.2a4.43,4.43,0,1,1-1.36-6.11A4.44,4.44,0,0,1,500,436.2Zm2.7-268.33a3.17,3.17,0,1,1,3.17-3.17A3.17,3.17,0,0,1,502.65,167.87Z" style="fill:#7E57C2"></path><rect x="431.18" y="135.83" width="2.69" height="6.74" style="fill:#f5f5f5"></rect><rect x="437.75" y="135.83" width="2.69" height="6.74" style="fill:#f5f5f5"></rect><rect x="444.32" y="135.83" width="2.69" height="6.74" style="fill:#f5f5f5"></rect><g style="opacity:0.30000000000000004"><rect x="382.45" y="119.67" width="18.89" height="45.03"></rect></g><g style="opacity:0.30000000000000004"><rect x="464.46" y="153.57" width="31.81" height="47.32"></rect></g><g style="opacity:0.30000000000000004"><rect x="444.85" y="233.13" width="12.42" height="12.42"></rect></g><g style="opacity:0.30000000000000004"><rect x="399.29" y="213.49" width="8.32" height="8.32"></rect></g><g style="opacity:0.30000000000000004"><rect x="399.29" y="201.56" width="8.32" height="8.32"></rect></g><g style="opacity:0.30000000000000004"><rect x="394.96" y="189.63" width="16.97" height="8.32"></rect></g><g style="opacity:0.30000000000000004"><rect x="409.1" y="225.65" width="18.08" height="35.07"></rect></g><g style="opacity:0.1"><polygon points="464.46 200.89 482.86 225.65 482.86 243.19 457.27 243.19 457.27 245.55 480.37 245.55 480.37 363.67 496.27 363.67 496.27 223.58 496.27 200.89 464.46 200.89"></polygon></g><g style="opacity:0.1"><polygon points="394.96 189.63 418.99 182.39 434.07 187.6 434.07 230.32 427.18 242.52 427.18 225.65 427.18 191.71 418.14 186.52 411.93 189.63 394.96 189.63"></polygon></g><rect x="480.41" y="385.49" width="22.11" height="2.85" style="fill:#f5f5f5"></rect><rect x="480.41" y="392.32" width="22.11" height="2.85" style="fill:#f5f5f5"></rect><g style="opacity:0.30000000000000004"><rect x="389.25" y="353.3" width="42.64" height="61.83"></rect></g><path d="M395.26,351.1c.15,0,.26.44.26,1s-.11,1-.26,1-.26-.44-.26-1S395.12,351.1,395.26,351.1Z" style="fill:#fff"></path><path d="M403.41,351.1c.15,0,.26.44.26,1s-.11,1-.26,1-.26-.44-.26-1S403.27,351.1,403.41,351.1Z" style="fill:#fff"></path><path d="M411.57,351.1c.14,0,.26.44.26,1s-.12,1-.26,1-.27-.44-.27-1S411.42,351.1,411.57,351.1Z" style="fill:#fff"></path><path d="M419.72,351.1c.14,0,.26.44.26,1s-.12,1-.26,1-.26-.44-.26-1S419.57,351.1,419.72,351.1Z" style="fill:#fff"></path><path d="M427.87,351.1c.14,0,.26.44.26,1s-.12,1-.26,1-.26-.44-.26-1S427.72,351.1,427.87,351.1Z" style="fill:#fff"></path><path d="M395.26,415.39c.15,0,.26.44.26,1s-.11,1-.26,1-.26-.45-.26-1S395.12,415.39,395.26,415.39Z" style="fill:#fff"></path><path d="M403.41,415.39c.15,0,.26.44.26,1s-.11,1-.26,1-.26-.45-.26-1S403.27,415.39,403.41,415.39Z" style="fill:#fff"></path><path d="M411.57,415.39c.14,0,.26.44.26,1s-.12,1-.26,1-.27-.45-.27-1S411.42,415.39,411.57,415.39Z" style="fill:#fff"></path><path d="M419.72,415.39c.14,0,.26.44.26,1s-.12,1-.26,1-.26-.45-.26-1S419.57,415.39,419.72,415.39Z" style="fill:#fff"></path><path d="M427.87,415.39c.14,0,.26.44.26,1s-.12,1-.26,1-.26-.45-.26-1S427.72,415.39,427.87,415.39Z" style="fill:#fff"></path><g style="opacity:0.30000000000000004"><rect x="437.27" y="339.11" width="16.35" height="23.71"></rect></g><path d="M439.57,338.26c.15,0,.26.17.26.38s-.11.38-.26.38-.26-.17-.26-.38S439.43,338.26,439.57,338.26Z" style="fill:#fff"></path><path d="M442.7,338.26c.14,0,.26.17.26.38s-.12.38-.26.38-.26-.17-.26-.38S442.55,338.26,442.7,338.26Z" style="fill:#fff"></path><path d="M445.82,338.26c.15,0,.26.17.26.38s-.11.38-.26.38-.26-.17-.26-.38S445.68,338.26,445.82,338.26Z" style="fill:#fff"></path><path d="M449,338.26c.14,0,.26.17.26.38s-.12.38-.26.38-.26-.17-.26-.38S448.8,338.26,449,338.26Z" style="fill:#fff"></path><path d="M452.07,338.26c.15,0,.26.17.26.38s-.11.38-.26.38-.26-.17-.26-.38S451.93,338.26,452.07,338.26Z" style="fill:#fff"></path><path d="M439.57,362.91c.15,0,.26.17.26.38s-.11.38-.26.38-.26-.17-.26-.38S439.43,362.91,439.57,362.91Z" style="fill:#fff"></path><path d="M442.7,362.91c.14,0,.26.17.26.38s-.12.38-.26.38-.26-.17-.26-.38S442.55,362.91,442.7,362.91Z" style="fill:#fff"></path><path d="M445.82,362.91c.15,0,.26.17.26.38s-.11.38-.26.38-.26-.17-.26-.38S445.68,362.91,445.82,362.91Z" style="fill:#fff"></path><path d="M449,362.91c.14,0,.26.17.26.38s-.12.38-.26.38-.26-.17-.26-.38S448.8,362.91,449,362.91Z" style="fill:#fff"></path><path d="M452.07,362.91c.15,0,.26.17.26.38s-.11.38-.26.38-.26-.17-.26-.38S451.93,362.91,452.07,362.91Z" style="fill:#fff"></path><polygon points="358.2 340.89 424.17 340.89 424.17 343.99 358.18 343.99 358.2 340.89" style="fill:#f5f5f5"></polygon><path d="M447.94,225.65a1.55,1.55,0,1,1-1.54-1.54A1.54,1.54,0,0,1,447.94,225.65Z" style="fill:#f5f5f5"></path><path d="M438.81,240.88a1.54,1.54,0,1,1-1.54-1.54A1.54,1.54,0,0,1,438.81,240.88Z" style="fill:#f5f5f5"></path><path d="M435.73,251.37a1.54,1.54,0,1,1,1.65,1.43A1.54,1.54,0,0,1,435.73,251.37Z" style="fill:#f5f5f5"></path><rect x="382.45" y="164.7" width="18.89" height="0.92" style="fill:#f5f5f5"></rect><rect x="382.45" y="137.18" width="2.6" height="9.5" style="fill:#f5f5f5"></rect><rect x="395.26" y="228.58" width="1.6" height="65.28" style="fill:#f5f5f5"></rect><g style="opacity:0.1"><polygon points="480.41 386.92 480.41 405.11 448.95 432.67 419.72 432.67 431.89 415.13 389.25 415.13 413.68 437.1 453.62 437.1 485.81 408.34 502.51 393.75 502.51 385.49 480.41 386.92"></polygon></g><path d="M348.46,452l-120.72-.07a26.29,26.29,0,0,1-26.28-26.3L201.52,123a26.29,26.29,0,0,1,26.31-26.29l120.72.07A26.3,26.3,0,0,1,374.83,123l-.06,302.63A26.3,26.3,0,0,1,348.46,452Z" style="fill:#455a64"></path><path d="M348.42,107.44H325a5.82,5.82,0,0,0-5.68,5.94v4.24a5.82,5.82,0,0,1-5.69,5.94l-45.62,0a5.82,5.82,0,0,1-5.68-5.94v-4.25a5.81,5.81,0,0,0-5.68-5.94h-8.23l-20.48,0a18.42,18.42,0,0,0-18.43,18.42l-.06,295.39a18.42,18.42,0,0,0,18.41,18.42l120.47.07a18.43,18.43,0,0,0,18.43-18.41l.05-295.4A18.42,18.42,0,0,0,348.42,107.44Z" style="fill:#ebebeb"></path><path d="M238.63,119.5h-23.4a5.81,5.81,0,0,0-5.69,5.93v4.25a5.81,5.81,0,0,1-5.68,5.94l-45.62,0a5.81,5.81,0,0,1-5.68-5.94v-4.25a5.82,5.82,0,0,0-5.68-5.94H118.16a18.42,18.42,0,0,0-18.43,18.41l0,295.39a18.4,18.4,0,0,0,18.4,18.42l120.47.07A18.4,18.4,0,0,0,257,433.31L257,137.92A18.42,18.42,0,0,0,238.63,119.5Z" style="fill:#fff"></path><path d="M238.63,119.5l.63,0a14.31,14.31,0,0,1,1.87.14,17.54,17.54,0,0,1,6.91,2.39,17.93,17.93,0,0,1,4.2,3.4,18.62,18.62,0,0,1,3.51,5.5,19.21,19.21,0,0,1,1.38,7.48q0,4.08,0,8.68c0,24.54,0,60,.06,103.91s0,96.1,0,154.1v27.6a20.16,20.16,0,0,1-.71,5.62,18.55,18.55,0,0,1-2.35,5.19,20.2,20.2,0,0,1-3.84,4.26,18.64,18.64,0,0,1-10.63,4.13c-3.87.11-7.7,0-11.58.05H204.67l-48.14,0-24.62,0H119.48a19.42,19.42,0,0,1-12-3.32,18.83,18.83,0,0,1-7.31-10.08,20,20,0,0,1-.76-6.23V401.45q0-24.45,0-48.14c0-31.57,0-62,0-91s0-56.57,0-82.36q0-19.35,0-37.33v-4.47c0-.74.07-1.49.11-2.23s.18-1.48.37-2.2a18.86,18.86,0,0,1,3.88-7.8,18.63,18.63,0,0,1,15-6.65h27.56a5.9,5.9,0,0,1,3.62,1,6.1,6.1,0,0,1,2.25,3,9.84,9.84,0,0,1,.38,3.64v1.79a14.6,14.6,0,0,0,.05,1.76,5.82,5.82,0,0,0,1.38,3.08,5.45,5.45,0,0,0,2.81,1.75,6.59,6.59,0,0,0,1.66.16H167l24.28,0H202c.84,0,1.7,0,2.5,0a5.41,5.41,0,0,0,2.26-.79A5.84,5.84,0,0,0,209.3,131a9.89,9.89,0,0,0,.14-2.24c0-.74,0-1.48,0-2.2a11.87,11.87,0,0,1,.1-2.15,6.08,6.08,0,0,1,.69-2,5.8,5.8,0,0,1,2.94-2.6,9.27,9.27,0,0,1,3.66-.39l11.94,0,7.35,0,2.5,0-2.5,0-7.35,0-11.94,0a8.87,8.87,0,0,0-3.6.39,5.62,5.62,0,0,0-2.84,2.53,5.72,5.72,0,0,0-.67,1.91,12.32,12.32,0,0,0-.09,2.12v2.2a10.36,10.36,0,0,1-.14,2.28,6,6,0,0,1-2.67,3.85,5.61,5.61,0,0,1-2.34.83c-.85.08-1.68,0-2.53,0H158.62a6,6,0,0,1-1.73-.17,5.77,5.77,0,0,1-3-1.84,6.12,6.12,0,0,1-1.45-3.24,13.65,13.65,0,0,1-.06-1.8v-1.79a9.69,9.69,0,0,0-.36-3.53,5.75,5.75,0,0,0-2.14-2.8,5.58,5.58,0,0,0-3.43-1H118.91a19.07,19.07,0,0,0-8,1.53,18.72,18.72,0,0,0-6.69,5,18.49,18.49,0,0,0-3.78,7.64c-.19.7-.24,1.43-.37,2.15s-.09,1.45-.1,2.19v4.47q0,18,0,37.33c0,25.79,0,53.35,0,82.36v91q0,23.67,0,48.14v30.84a19.74,19.74,0,0,0,.74,6.08,18.3,18.3,0,0,0,7.1,9.8,18.87,18.87,0,0,0,11.7,3.22h12.43l24.62,0,48.14,0,23.45,0c3.87,0,7.74.06,11.55-.05a18.18,18.18,0,0,0,10.35-4,19.07,19.07,0,0,0,3.73-4.14,18,18,0,0,0,2.29-5.05,18.8,18.8,0,0,0,.69-5.49c0-1.86,0-3.72,0-5.58q0-11.14,0-22c0-58,.06-110.23.08-154.1s.08-79.37.1-103.91c0-3.07,0-6,0-8.68A18.94,18.94,0,0,0,255.6,131a18.16,18.16,0,0,0-3.46-5.47,17.58,17.58,0,0,0-4.16-3.4,17.37,17.37,0,0,0-6.86-2.42,12.07,12.07,0,0,0-1.86-.17Z" style="fill:#263238"></path><path d="M242.19,149.33c0,.08-3,.17-6.79.2s-6.8,0-6.8-.09,3-.17,6.79-.2S242.19,149.25,242.19,149.33Z" style="fill:#263238"></path><path d="M242.22,152.81c0,.08-3,.17-6.8.2s-6.79,0-6.8-.09,3-.17,6.8-.2S242.22,152.73,242.22,152.81Z" style="fill:#263238"></path><path d="M242.25,156.29c0,.07-3,.16-6.8.2s-6.8,0-6.8-.09,3-.17,6.8-.2S242.25,156.21,242.25,156.29Z" style="fill:#263238"></path><path d="M118.52,160.26l.29,0,.78,0,2.91-.07-.08.08c0-.64,0-1.34,0-2.1,0-.39,0-.76,0-1.21a1.13,1.13,0,0,1,1-.9c.47,0,.88,0,1.39,0a1.12,1.12,0,0,1,1,1.12c0,1,0,2,0,3.07l-.14-.14,3.66,0-.14.14c0-1.48,0-3,0-4.56,0-.39,0-.78,0-1.17a1.18,1.18,0,0,0-.51-.86L127,152c-.53-.52-1-1-1.55-1.52l-.75-.74a1.71,1.71,0,0,0-.75-.57,1,1,0,0,0-.84.16c-.23.19-.46.45-.69.67l-1.31,1.33c-.83.86-1.69,1.64-2.31,2.38a2.55,2.55,0,0,0-.19,1.37v1.29c0,.79,0,1.48,0,2.08s0,1,0,1.33a2.78,2.78,0,0,1,0,.48s0-.15,0-.44,0-.79,0-1.31,0-1.3,0-2.1c0-.41,0-.85,0-1.31,0-.24,0-.48,0-.72a1.53,1.53,0,0,1,.2-.77c.68-.83,1.49-1.57,2.32-2.45l1.3-1.34c.24-.23.43-.46.71-.7a1.25,1.25,0,0,1,1.06-.2,1.91,1.91,0,0,1,.88.62l.75.74c.51.5,1,1,1.55,1.52l1.61,1.57a3.67,3.67,0,0,1,.41.45,1.22,1.22,0,0,1,.19.62c0,.38,0,.77,0,1.16,0,1.57,0,3.09,0,4.57v.14h-.14l-3.67,0h-.13v-.13c0-1.06,0-2.09,0-3.07a.89.89,0,0,0-.74-.89c-.42,0-.92,0-1.33,0a.89.89,0,0,0-.79.71c0,.37,0,.79,0,1.17v2.19h-.08l-3,0h-1Z" style="fill:#263238"></path><rect x="113.06" y="178.64" width="128.42" height="23.36" rx="9.85" style="fill:#f5f5f5"></rect><path d="M231.63,202l.74-.06a11.44,11.44,0,0,0,2.12-.41,10.33,10.33,0,0,0,3.09-1.63,9.59,9.59,0,0,0,2.92-3.71,9.34,9.34,0,0,0,.78-2.72,26.77,26.77,0,0,0,.09-3.15,20.93,20.93,0,0,0-.16-3.42,9.56,9.56,0,0,0-1.27-3.42,9.74,9.74,0,0,0-6.48-4.51,28.39,28.39,0,0,0-4.47-.17h-4.74l-101.33.07a9.64,9.64,0,0,0-9.58,8.81c-.08,1.17,0,2.4,0,3.58a11.17,11.17,0,0,0,.36,3.48,9.7,9.7,0,0,0,4,5.44,9.42,9.42,0,0,0,3.11,1.33,14.08,14.08,0,0,0,3.38.25h20l45.56.05,30.71.08,8.35,0,2.17,0,.74,0-.74,0-2.17,0-8.35,0-30.71.07-45.56.05h-20a14.67,14.67,0,0,1-3.48-.26,9.85,9.85,0,0,1-3.27-1.39,10.16,10.16,0,0,1-4.17-5.7,11.64,11.64,0,0,1-.39-3.61c0-1.2,0-2.37,0-3.61a10.12,10.12,0,0,1,10.06-9.26l101.33.07H229a27.21,27.21,0,0,1,4.53.19,10,10,0,0,1,7.94,8.19,21.54,21.54,0,0,1,.13,3.46,25.45,25.45,0,0,1-.11,3.18,9.3,9.3,0,0,1-.81,2.77,9.65,9.65,0,0,1-3,3.75,9.59,9.59,0,0,1-5.29,2C231.88,202,231.63,202,231.63,202Z" style="fill:#263238"></path><path d="M233.61,189.77s0-.38-.22-1a4.19,4.19,0,0,0-1.55-2.22,4,4,0,1,0,0,6.45,4.21,4.21,0,0,0,1.55-2.21c.18-.64.18-1,.22-1s0,.09,0,.27a3.13,3.13,0,0,1-.08.78,4.2,4.2,0,0,1-1.53,2.44,4.38,4.38,0,0,1-4.18.69,4.44,4.44,0,0,1,0-8.37,4.38,4.38,0,0,1,4.18.69,4.2,4.2,0,0,1,1.53,2.44,3.17,3.17,0,0,1,.08.78C233.64,189.67,233.63,189.77,233.61,189.77Z" style="fill:#263238"></path><path d="M235.94,197.06a16.55,16.55,0,0,1-3.79-4.1,8.26,8.26,0,0,1,2.07,1.89A8.17,8.17,0,0,1,235.94,197.06Z" style="fill:#263238"></path><path d="M130.4,188h-2.29v-.6h5.27v.6h-2.29v5.92h-.69Z" style="fill:#e0e0e0"></path><path d="M138.09,191.66H134a1.82,1.82,0,0,0,1.93,1.71,2,2,0,0,0,1.5-.64l.37.42a2.4,2.4,0,0,1-1.89.81,2.43,2.43,0,0,1-2.57-2.5,2.37,2.37,0,0,1,2.39-2.49,2.34,2.34,0,0,1,2.38,2.49C138.1,191.52,138.09,191.59,138.09,191.66Zm-4.1-.49h3.48a1.74,1.74,0,0,0-3.48,0Z" style="fill:#e0e0e0"></path><path d="M142.43,193.91l-1.56-2-1.56,2h-.75l1.94-2.52L138.66,189h.74l1.47,1.92,1.47-1.92h.73l-1.84,2.38,2,2.52Z" style="fill:#e0e0e0"></path><path d="M146.86,193.61a1.59,1.59,0,0,1-1,.35,1.31,1.31,0,0,1-1.44-1.43v-3h-.87V189h.87v-1.07h.66V189h1.49v.56h-1.49v2.92a.79.79,0,0,0,.85.9,1.15,1.15,0,0,0,.73-.25Z" style="fill:#e0e0e0"></path><rect x="118.48" y="221.42" width="28.11" height="28.11" style="fill:#7E57C2"></rect><g style="opacity:0.4"><rect x="118.48" y="221.42" width="28.11" height="28.11"></rect></g><path d="M200.66,224.25c0,.13-9.4.24-21,.24s-21-.11-21-.24,9.39-.24,21-.24S200.66,224.12,200.66,224.25Z" style="fill:#7E57C2"></path><path d="M234.14,232.86c0,.14-16.9.24-37.73.24s-37.73-.1-37.73-.24,16.89-.23,37.73-.23S234.14,232.73,234.14,232.86Z" style="fill:#263238"></path><path d="M233.25,239c0,.13-16.7.24-37.29.24s-37.28-.11-37.28-.24,16.69-.24,37.28-.24S233.25,238.89,233.25,239Z" style="fill:#263238"></path><path d="M202.71,244.89c0,.13-9.86.24-22,.24s-22-.11-22-.24,9.85-.24,22-.24S202.71,244.76,202.71,244.89Z" style="fill:#263238"></path><rect x="118.48" y="268.05" width="28.11" height="28.11" style="fill:#7E57C2"></rect><path d="M200.66,271.08c0,.13-9.4.24-21,.24s-21-.11-21-.24,9.39-.24,21-.24S200.66,271,200.66,271.08Z" style="fill:#7E57C2"></path><path d="M234.14,279.7c0,.13-16.9.23-37.73.23s-37.73-.1-37.73-.23,16.89-.24,37.73-.24S234.14,279.56,234.14,279.7Z" style="fill:#263238"></path><path d="M233.25,285.85c0,.13-16.7.24-37.29.24s-37.28-.11-37.28-.24,16.69-.24,37.28-.24S233.25,285.72,233.25,285.85Z" style="fill:#263238"></path><path d="M202.71,291.72c0,.13-9.86.24-22,.24s-22-.11-22-.24,9.85-.24,22-.24S202.71,291.59,202.71,291.72Z" style="fill:#263238"></path><rect x="118.48" y="314.89" width="28.11" height="28.11" style="fill:#7E57C2"></rect><path d="M200.66,317.91c0,.13-9.4.24-21,.24s-21-.11-21-.24,9.39-.24,21-.24S200.66,317.78,200.66,317.91Z" style="fill:#7E57C2"></path><path d="M234.14,326.53c0,.13-16.9.24-37.73.24s-37.73-.11-37.73-.24,16.89-.24,37.73-.24S234.14,326.39,234.14,326.53Z" style="fill:#263238"></path><path d="M233.25,332.68c0,.13-16.7.24-37.29.24s-37.28-.11-37.28-.24,16.69-.24,37.28-.24S233.25,332.55,233.25,332.68Z" style="fill:#263238"></path><path d="M202.71,338.55c0,.13-9.86.24-22,.24s-22-.11-22-.24,9.85-.24,22-.24S202.71,338.42,202.71,338.55Z" style="fill:#263238"></path><rect x="118.48" y="361.72" width="28.11" height="28.11" style="fill:#7E57C2"></rect><path d="M200.66,364.74c0,.13-9.4.24-21,.24s-21-.11-21-.24,9.39-.24,21-.24S200.66,364.61,200.66,364.74Z" style="fill:#455a64"></path><path d="M234.14,373.36c0,.13-16.9.24-37.73.24s-37.73-.11-37.73-.24,16.89-.24,37.73-.24S234.14,373.23,234.14,373.36Z" style="fill:#263238"></path><path d="M233.25,379.51c0,.13-16.7.24-37.29.24s-37.28-.11-37.28-.24,16.69-.24,37.28-.24S233.25,379.38,233.25,379.51Z" style="fill:#263238"></path><path d="M202.71,385.38c0,.13-9.86.24-22,.24s-22-.11-22-.24,9.85-.24,22-.24S202.71,385.25,202.71,385.38Z" style="fill:#263238"></path><rect x="118.48" y="408.55" width="28.11" height="28.11" style="fill:#e0e0e0"></rect><path d="M200.66,411.57c0,.13-9.4.24-21,.24s-21-.11-21-.24,9.39-.24,21-.24S200.66,411.44,200.66,411.57Z" style="fill:#e0e0e0"></path><path d="M234.14,420.19c0,.13-16.9.24-37.73.24s-37.73-.11-37.73-.24,16.89-.24,37.73-.24S234.14,420.06,234.14,420.19Z" style="fill:#ebebeb"></path><path d="M233.25,426.34c0,.14-16.7.24-37.29.24s-37.28-.1-37.28-.24,16.69-.24,37.28-.24S233.25,426.21,233.25,426.34Z" style="fill:#ebebeb"></path><path d="M202.71,432.21c0,.14-9.86.24-22,.24s-22-.1-22-.24,9.85-.24,22-.24S202.71,432.08,202.71,432.21Z" style="fill:#ebebeb"></path><g style="opacity:0.30000000000000004"><rect x="118.48" y="361.72" width="28.11" height="28.11"></rect></g><g style="opacity:0.30000000000000004"><rect x="118.48" y="268.05" width="28.11" height="28.11"></rect></g></g></svg>